<svg viewBox="0 0 96 96" xmlns="http://www.w3.org/2000/svg" xmlns:xlink="http://www.w3.org/1999/xlink" id="Icons_Dictionary" overflow="hidden"><style>
.MsftOfcThm_Accent1_Fill {
 fill:#DF5327; 
}
.MsftOfcThm_Accent1_Stroke {
 stroke:#DF5327; 
}
</style>
<g><g transform="matrix(0.0390625 0 0 0.0390625 15 8)"><path d="M1664 0 1664 2048 256 2048C220.667 2048 187.667 2041.33 157 2028 126.333 2014.67 99 1996.33 75 1973 51 1949.67 32.6667 1922.67 20 1892 7.33333 1861.33 0.666667 1828 0 1792L0 256C0 223.333 7 191.667 21 161 35 130.333 54 103 78 79 102 55 129.333 36 160 22 190.667 8 222.667 0.666667 256 0L1664 0ZM1536 1664 256 1664C238 1664 221.333 1667.33 206 1674 190.667 1680.67 177.333 1689.67 166 1701 154.667 1712.33 145.333 1726 138 1742 130.667 1758 127.333 1774.67 128 1792 128 1810 131.333 1826.67 138 1842 144.667 1857.33 153.667 1870.67 165 1882 176.333 1893.33 190 1902.67 206 1910 222 1917.33 238.667 1920.67 256 1920L1536 1920 1536 1664ZM128 1570C168 1547.33 210.667 1536 256 1536L1536 1536 1536 128 256 128C240.667 128 225.333 131.667 210 139 194.667 146.333 181 156.333 169 169 157 181.667 147.333 195.333 140 210 132.667 224.667 128.667 240 128 256L128 1570ZM384 384 1280 384 1280 768 384 768 384 384ZM512 640 1152 640 1152 512 512 512 512 640Z" stroke="#DF5327" fill="#4472C4"/></g></g></svg>